<?xml version="1.0" encoding="UTF-8" standalone="no"?>
<svg width="360px" height="30px" viewBox="0 0 360 30" version="1.1" xmlns="http://www.w3.org/2000/svg" xmlns:xlink="http://www.w3.org/1999/xlink">
    <defs></defs>
    <g id="Page-1" stroke="none" stroke-width="1" fill="none" fill-rule="evenodd">
        <path d="M20.5736498,28.9726562 L25.2283142,28.9726562 L14.9959083,0.632230718 L10.2430442,0.632230718 L0.0106382979,28.9726562 L4.58674304,28.9726562 L7.1792144,21.3130818 L17.9811784,21.3130818 L20.5736498,28.9726562 Z M12.5212766,5.34581501 L12.6391162,5.34581501 L16.8617021,17.7778936 L8.29869067,17.7778936 L12.5212766,5.34581501 Z M54.413257,7.64368735 L50.210311,7.64368735 L46.2430442,24.534031 L46.1644845,24.534031 L41.6276596,7.64368735 L37.5425532,7.64368735 L33.0253682,24.534031 L32.9468085,24.534031 L28.9795417,7.64368735 L24.7373159,7.64368735 L30.6292962,28.9726562 L35.0090016,28.9726562 L39.5065466,12.9071898 L39.6047463,12.9071898 L44.1415712,28.9726562 L48.5409165,28.9726562 L54.413257,7.64368735 Z M65.8829787,10.8449967 C68.9860884,10.8449967 71.0875614,13.0446693 71.185761,16.3638183 L60.3641571,16.3638183 C60.5998363,13.0839492 62.8191489,10.8449967 65.8829787,10.8449967 L65.8829787,10.8449967 Z M71.1661211,22.7271571 C70.5769231,24.5929508 68.6325696,25.7713469 66.1579378,25.7713469 C62.6620295,25.7713469 60.3445172,23.335995 60.3445172,19.6436873 L60.3445172,19.3883682 L75.4476268,19.3883682 L75.4476268,17.8957332 C75.4476268,11.4341947 71.7553191,7.36872826 65.9026187,7.36872826 C59.9320786,7.36872826 56.0433715,11.7091538 56.0433715,18.3867315 C56.0433715,25.0643093 59.8927987,29.2279754 66.0793781,29.2279754 C70.8715221,29.2279754 74.6227496,26.5569443 75.2315876,22.7271571 L71.1661211,22.7271571 Z M78.5114566,13.7124271 C78.5114566,16.6584173 80.4165303,18.6224108 84.2659574,19.5651276 L88.0761047,20.5078445 C90.3150573,21.0774026 91.1595745,21.7844402 91.1595745,23.1395957 C91.1595745,24.8679099 89.49018,25.9677463 86.8387889,25.9677463 C84.1284779,25.9677463 82.4787234,24.84827 82.1448445,22.8057168 L77.9418985,22.8057168 C78.2561375,26.655144 81.6538462,29.2279754 86.6227496,29.2279754 C91.7880524,29.2279754 95.4018003,26.5962242 95.4018003,22.7860769 C95.4018003,19.6436873 93.8109656,18.0921325 89.50982,17.051216 L85.9746318,16.2066988 C83.7160393,15.6567806 82.6554828,14.7729836 82.6554828,13.4767479 C82.6554828,11.7877135 84.2659574,10.6682373 86.6816694,10.6682373 C89.1170213,10.6682373 90.7471358,11.8466333 90.9238953,13.7320671 L94.9304419,13.7320671 C94.8322422,10.0201194 91.4541735,7.3883682 86.7798691,7.3883682 C81.8698854,7.3883682 78.5114566,9.96119962 78.5114566,13.7124271 L78.5114566,13.7124271 Z M107.990998,29.2279754 C114.157938,29.2279754 118.066285,25.0250294 118.066285,18.3081718 C118.066285,11.5913142 114.138298,7.36872826 107.990998,7.36872826 C101.843699,7.36872826 97.896072,11.6109541 97.896072,18.3081718 C97.896072,25.0250294 101.824059,29.2279754 107.990998,29.2279754 L107.990998,29.2279754 Z M107.990998,25.6927872 C104.37725,25.6927872 102.216858,22.9628363 102.216858,18.3081718 C102.216858,13.6731472 104.37725,10.9039165 107.990998,10.9039165 C111.604746,10.9039165 113.745499,13.6535073 113.745499,18.3081718 C113.745499,22.9628363 111.604746,25.6927872 107.990998,25.6927872 L107.990998,25.6927872 Z M121.483633,28.9726562 L125.745499,28.9726562 L125.745499,15.8924599 C125.745499,13.1035891 127.630933,11.061036 130.262684,11.061036 C132.756956,11.061036 134.347791,12.6322307 134.347791,15.1068625 L134.347791,28.9726562 L138.531097,28.9726562 L138.531097,15.7353404 C138.531097,13.0053895 140.37725,11.061036 142.989362,11.061036 C145.640753,11.061036 147.153028,12.6715106 147.153028,15.4603813 L147.153028,28.9726562 L151.395254,28.9726562 L151.395254,14.4391047 C151.395254,10.1772389 148.645663,7.40800813 144.442717,7.40800813 C141.398527,7.40800813 138.884615,8.97920289 137.765139,11.5520343 L137.666939,11.5520343 C136.802782,8.90064316 134.662029,7.40800813 131.696399,7.40800813 C128.907529,7.40800813 126.609656,8.86136329 125.62766,11.2574353 L125.5491,11.2574353 L125.5491,7.64368735 L121.483633,7.64368735 L121.483633,28.9726562 Z M164.53437,10.8449967 C167.63748,10.8449967 169.738953,13.0446693 169.837152,16.3638183 L159.015548,16.3638183 C159.251227,13.0839492 161.47054,10.8449967 164.53437,10.8449967 L164.53437,10.8449967 Z M169.817512,22.7271571 C169.228314,24.5929508 167.283961,25.7713469 164.809329,25.7713469 C161.313421,25.7713469 158.995908,23.335995 158.995908,19.6436873 L158.995908,19.3883682 L174.099018,19.3883682 L174.099018,17.8957332 C174.099018,11.4341947 170.40671,7.36872826 164.55401,7.36872826 C158.58347,7.36872826 154.694763,11.7091538 154.694763,18.3867315 C154.694763,25.0643093 158.54419,29.2279754 164.730769,29.2279754 C169.522913,29.2279754 173.274141,26.5569443 173.882979,22.7271571 L169.817512,22.7271571 Z M215.892799,0.632230718 L210.786416,0.632230718 L201.634206,23.0021162 L201.477087,23.0021162 L192.305237,0.632230718 L187.218494,0.632230718 L187.218494,28.9726562 L191.225041,28.9726562 L191.225041,8.11504578 L191.36252,8.11504578 L199.925532,28.756617 L203.185761,28.756617 L211.729133,8.11504578 L211.866612,8.11504578 L211.866612,28.9726562 L215.892799,28.9726562 L215.892799,0.632230718 Z M228.089198,25.7909869 C225.634206,25.7909869 224.043372,24.6125908 224.043372,22.7860769 C224.043372,20.9006432 225.555646,19.8204468 228.462357,19.6436873 L233.6473,19.2901685 L233.6473,20.959563 C233.6473,23.7680736 231.251227,25.7909869 228.089198,25.7909869 L228.089198,25.7909869 Z M226.950082,29.1886955 C229.856792,29.1886955 232.508183,27.7353404 233.686579,25.4178281 L233.784779,25.4178281 L233.784779,28.9726562 L237.850245,28.9726562 L237.850245,14.340905 C237.850245,10.1183191 234.491817,7.36872826 229.287234,7.36872826 C224.49509,7.36872826 220.920622,10.157599 220.802782,13.9284664 L224.789689,13.9284664 C225.162848,12.0823126 226.851882,10.8842765 229.169394,10.8842765 C232.017185,10.8842765 233.6473,12.2197921 233.6473,14.655144 L233.6473,16.3048985 L227.892799,16.6387774 C222.629296,16.9726562 219.742226,19.133049 219.742226,22.8646366 C219.742226,26.6747839 222.688216,29.1886955 226.950082,29.1886955 L226.950082,29.1886955 Z M260.35761,14.9301031 C259.984452,10.8253567 256.606383,7.36872826 251.166121,7.36872826 C245.136661,7.36872826 241.169394,11.6698739 241.169394,18.3081718 C241.169394,25.0643093 245.156301,29.2279754 251.205401,29.2279754 C256.331424,29.2279754 259.905892,26.2623453 260.39689,21.8040801 L256.331424,21.8040801 C255.820786,24.2983518 253.994272,25.6535073 251.225041,25.6535073 C247.807692,25.6535073 245.49018,22.9039165 245.49018,18.3081718 C245.49018,13.8302667 247.768412,10.9628363 251.205401,10.9628363 C254.131751,10.9628363 255.899345,12.6715106 256.292144,14.9301031 L260.35761,14.9301031 Z M285.477087,0.160872289 C277.306874,0.160872289 272.200491,5.7975335 272.200491,14.8122635 C272.200491,23.8269934 277.306874,29.4440147 285.477087,29.4440147 C293.62766,29.4440147 298.753682,23.8269934 298.753682,14.8122635 C298.753682,5.7975335 293.62766,0.160872289 285.477087,0.160872289 L285.477087,0.160872289 Z M285.477087,4.02993939 C290.858429,4.02993939 294.236498,8.19360551 294.236498,14.8122635 C294.236498,21.4112815 290.858429,25.5749476 285.477087,25.5749476 C280.095745,25.5749476 276.698036,21.4112815 276.698036,14.8122635 C276.698036,8.19360551 280.095745,4.02993939 285.477087,4.02993939 L285.477087,4.02993939 Z M301.680033,21.0774026 C301.954992,26.2034255 306.197218,29.4440147 312.481997,29.4440147 C319.198854,29.4440147 323.42144,26.1248657 323.42144,20.8220834 C323.42144,16.6780572 321.005728,14.340905 315.192308,12.9661096 L312.069558,12.2001522 C308.41653,11.2967152 306.923895,10.1183191 306.923895,8.11504578 C306.923895,5.60113416 309.261047,3.87281992 312.678396,3.87281992 C316.095745,3.87281992 318.432897,5.58149422 318.688216,8.40964479 L322.969722,8.40964479 C322.832242,3.51930109 318.727496,0.160872289 312.737316,0.160872289 C306.688216,0.160872289 302.42635,3.51930109 302.42635,8.40964479 C302.42635,12.3572716 304.842062,14.7926235 310.046645,16.0495793 L313.719313,16.9333764 C317.39198,17.8368134 318.943535,19.152689 318.943535,21.3523617 C318.943535,23.8859132 316.370704,25.7320671 312.796236,25.7320671 C309.064648,25.7320671 306.334697,23.8859132 306.020458,21.0774026 L301.680033,21.0774026 Z M334.891162,28.9726562 L339.761866,28.9726562 L346.910802,18.1706923 L347.048282,18.1706923 L354.099018,28.9726562 L359.244681,28.9726562 L349.817512,14.9104631 L349.817512,14.7926235 L359.42144,0.632230718 L354.452537,0.632230718 L347.38216,11.5913142 L347.225041,11.5913142 L340.233224,0.632230718 L334.989362,0.632230718 L344.298691,14.635504 L344.298691,14.7729836 L334.891162,28.9726562 Z" id="awesome_1" fill="#000000"></path>
    </g>
</svg>