<?xml version="1.0" encoding="UTF-8" standalone="no"?>
<svg width="328px" height="30px" viewBox="0 0 328 30" version="1.1" xmlns="http://www.w3.org/2000/svg" xmlns:xlink="http://www.w3.org/1999/xlink">
    <defs></defs>
    <g id="Page-1" stroke="none" stroke-width="1" fill="none" fill-rule="evenodd">
        <path d="M22.0949264,29 L23.1947627,29 L12.294599,0.659574468 L11.2929624,0.659574468 L0.392798691,29 L1.47299509,29 L5.20458265,19.1603928 L18.3829787,19.1603928 L22.0949264,29 Z M11.7446809,2.01472995 L11.8428805,2.01472995 L18.0294599,18.2569558 L5.55810147,18.2569558 L11.7446809,2.01472995 Z M49.9639935,7.86743044 L48.8837971,7.86743044 L43.1096563,27.9198036 L43.0703764,27.9198036 L36.8445172,7.86743044 L35.5482815,7.86743044 L29.3224223,27.9198036 L29.2831424,27.9198036 L23.5090016,7.86743044 L22.4288052,7.86743044 L28.6546645,29 L29.9509002,29 L36.1767594,9.04582651 L36.2160393,9.04582651 L42.4418985,29 L43.7381342,29 L49.9639935,7.86743044 Z M60.4713584,8.45662848 C65.2635025,8.45662848 68.4844517,12.1685761 68.4844517,17.589198 L52.2815057,17.589198 C52.5171849,12.1096563 55.7577741,8.45662848 60.4713584,8.45662848 L60.4713584,8.45662848 Z M68.1898527,23.1276596 C67.5613748,26.1129296 64.8707038,28.410802 60.6481178,28.410802 C55.6006547,28.410802 52.2618658,24.797054 52.2618658,18.512275 L52.2618658,18.4729951 L69.4664484,18.4729951 L69.4664484,17.7266776 C69.4664484,11.6579378 65.8527005,7.55319149 60.4713584,7.55319149 C54.9328969,7.55319149 51.2798691,11.8739771 51.2798691,18.4337152 C51.2798691,25.3076923 54.9525368,29.314239 60.6284779,29.314239 C65.3617021,29.314239 68.4844517,26.6824877 69.1914894,23.1276596 L68.1898527,23.1276596 Z M72.5499182,13.1309329 C72.5499182,15.8412439 74.3371522,17.314239 77.8723404,18.1587561 L81.1914894,18.9247136 C84.9427169,19.8085106 86.4353519,21.1636661 86.4353519,23.5793781 C86.4353519,26.4860884 83.4304419,28.410802 79.7184943,28.410802 C75.908347,28.410802 73.0801964,25.99509 72.8248773,23.0294599 L71.8428805,23.0294599 C72.0589198,26.4664484 75.2013093,29.314239 79.7381342,29.314239 C84.1963993,29.314239 87.4173486,26.9770867 87.4173486,23.5204583 C87.4173486,20.6530278 85.6693944,19.0621931 81.4860884,18.0409165 L78.2062193,17.2553191 C75.00491,16.5090016 73.512275,15.3895254 73.512275,13.111293 C73.512275,10.3420622 76.3797054,8.45662848 79.6595745,8.45662848 C83.4500818,8.45662848 85.787234,10.7741408 86.1407529,13.99509 L87.0834697,13.99509 C86.710311,10.0474632 83.9018003,7.55319149 79.6595745,7.55319149 C75.7512275,7.55319149 72.5499182,9.8314239 72.5499182,13.1309329 L72.5499182,13.1309329 Z M99.1031097,29.314239 C104.641571,29.314239 108.412439,25.111293 108.412439,18.4337152 C108.412439,11.7561375 104.641571,7.55319149 99.1031097,7.55319149 C93.5646481,7.55319149 89.7937807,11.7561375 89.7937807,18.4337152 C89.7937807,25.111293 93.5450082,29.314239 99.1031097,29.314239 L99.1031097,29.314239 Z M99.1031097,28.391162 C94.1145663,28.391162 90.7757774,24.5613748 90.7757774,18.4337152 C90.7757774,12.3060556 94.1145663,8.45662848 99.1031097,8.45662848 C104.091653,8.45662848 107.450082,12.3060556 107.450082,18.4337152 C107.450082,24.5417349 104.091653,28.391162 99.1031097,28.391162 L99.1031097,28.391162 Z M112.045827,29 L113.008183,29 L113.008183,16.5679214 C113.008183,11.599018 115.620295,8.45662848 119.391162,8.45662848 C122.788871,8.45662848 125.263502,11.1080196 125.263502,15.0949264 L125.263502,29 L126.225859,29 L126.225859,15.9590835 C126.225859,11.5204583 128.779051,8.45662848 132.589198,8.45662848 C136.222586,8.45662848 138.481178,10.9705401 138.481178,15.0556465 L138.481178,29 L139.443535,29 L139.443535,14.8396072 C139.443535,10.400982 136.733224,7.55319149 132.726678,7.55319149 C129.11293,7.55319149 126.599018,10.086743 125.99018,12.8756137 L125.9509,12.8756137 C125.400982,9.98854337 122.96563,7.55319149 119.469722,7.55319149 C115.993453,7.55319149 113.715221,9.87070376 112.988543,12.8559738 L112.949264,12.8559738 L112.949264,7.86743044 L112.045827,7.86743044 L112.045827,29 Z M152.130933,8.45662848 C156.923077,8.45662848 160.144026,12.1685761 160.144026,17.589198 L143.94108,17.589198 C144.176759,12.1096563 147.417349,8.45662848 152.130933,8.45662848 L152.130933,8.45662848 Z M159.849427,23.1276596 C159.220949,26.1129296 156.530278,28.410802 152.307692,28.410802 C147.260229,28.410802 143.92144,24.797054 143.92144,18.512275 L143.92144,18.4729951 L161.126023,18.4729951 L161.126023,17.7266776 C161.126023,11.6579378 157.512275,7.55319149 152.130933,7.55319149 C146.592471,7.55319149 142.939444,11.8739771 142.939444,18.4337152 C142.939444,25.3076923 146.612111,29.314239 152.288052,29.314239 C157.021277,29.314239 160.144026,26.6824877 160.851064,23.1276596 L159.849427,23.1276596 Z M198.382979,0.659574468 L197.302782,0.659574468 L185.400982,27.7626841 L185.322422,27.7626841 L173.361702,0.659574468 L172.320786,0.659574468 L172.320786,29 L173.283142,29 L173.283142,2.91816694 L173.361702,2.91816694 L184.831424,28.9803601 L185.87234,28.9803601 L197.342062,2.91816694 L197.420622,2.91816694 L197.420622,29 L198.382979,29 L198.382979,0.659574468 Z M209.656301,28.410802 C206.160393,28.410802 203.587561,26.289689 203.587561,23.3829787 C203.587561,20.3387889 205.905074,18.5515548 210.225859,18.2176759 L217.708674,17.6481178 L217.708674,21.2225859 C217.708674,25.1702128 214.094926,28.410802 209.656301,28.410802 L209.656301,28.410802 Z M209.597381,29.314239 C213.368249,29.314239 216.667758,27.212766 217.689034,24.188216 L217.708674,24.188216 L217.708674,29 L218.671031,29 L218.671031,14.8199673 C218.671031,10.3420622 215.86252,7.55319149 211.325696,7.55319149 C206.86743,7.55319149 203.823241,10.0081833 203.371522,14.01473 L204.294599,14.01473 C204.844517,10.4795417 207.378069,8.45662848 211.325696,8.45662848 C215.312602,8.45662848 217.708674,10.8723404 217.708674,14.8788871 L217.708674,16.7839607 L210.06874,17.3731588 C205.158756,17.7659574 202.605565,19.7888707 202.605565,23.3829787 C202.605565,26.8592471 205.492635,29.314239 209.597381,29.314239 L209.597381,29.314239 Z M239.705401,14.0736498 C239.018003,10.3224223 235.698854,7.55319149 231.378069,7.55319149 C225.761047,7.55319149 222.166939,11.7757774 222.166939,18.4337152 C222.166939,25.111293 225.741408,29.314239 231.378069,29.314239 C235.777414,29.314239 238.998363,26.7217676 239.666121,22.9705401 L238.684124,22.9705401 C238.036007,26.1718494 235.207856,28.391162 231.378069,28.391162 C226.291326,28.391162 223.148936,24.5220949 223.148936,18.4337152 C223.148936,12.3453355 226.310966,8.45662848 231.378069,8.45662848 C235.168576,8.45662848 238.055646,10.8134206 238.723404,14.0736498 L239.705401,14.0736498 Z M262.114566,0.266775777 C254.474632,0.266775777 249.623568,5.92307692 249.623568,14.8199673 C249.623568,23.7561375 254.454992,29.3927987 262.114566,29.3927987 C269.754501,29.3927987 274.605565,23.7561375 274.605565,14.8199673 C274.605565,5.92307692 269.734861,0.266775777 262.114566,0.266775777 L262.114566,0.266775777 Z M262.114566,1.1898527 C269.126023,1.1898527 273.623568,6.49263502 273.623568,14.8199673 C273.623568,23.1472995 269.126023,28.4697218 262.114566,28.4697218 C255.08347,28.4697218 250.605565,23.1472995 250.605565,14.8199673 C250.605565,6.49263502 255.08347,1.1898527 262.114566,1.1898527 L262.114566,1.1898527 Z M276.864157,21.497545 C277.080196,26.0932897 281.263502,29.3927987 287.018003,29.3927987 C292.772504,29.3927987 296.661211,26.0932897 296.661211,21.5564648 C296.661211,17.8837971 294.206219,15.8216039 288.844517,14.4860884 L285.603928,13.6808511 C280.831424,12.502455 278.631751,10.7741408 278.631751,7.74959083 C278.631751,3.9198036 282.265139,1.17021277 286.703764,1.17021277 C291.378069,1.17021277 294.952537,3.82160393 295.129296,7.35679214 L296.111293,7.35679214 C295.934534,3.3502455 291.967267,0.266775777 286.703764,0.266775777 C281.774141,0.266775777 277.649755,3.4091653 277.649755,7.74959083 C277.649755,11.2062193 280.026187,13.2880524 285.289689,14.603928 L288.569558,15.4288052 C293.577741,16.685761 295.679214,18.4337152 295.679214,21.5957447 C295.679214,25.5433715 292.163666,28.4893617 287.057283,28.4893617 C281.87234,28.4893617 278.062193,25.5826514 277.846154,21.497545 L276.864157,21.497545 Z M306.00982,29 L307.168576,29 L316.890344,15.6448445 L316.909984,15.6448445 L326.572831,29 L327.751227,29 L317.499182,14.8199673 L327.770867,0.659574468 L326.612111,0.659574468 L316.909984,14.01473 L316.890344,14.01473 L307.207856,0.659574468 L306.02946,0.659574468 L316.301146,14.8199673 L316.301146,14.8396072 L306.00982,29 Z" id="awesome_3" fill="#000000"></path>
    </g>
</svg>