<svg viewBox="0 0 305 31" xmlns="http://www.w3.org/2000/svg" fill-rule="evenodd" clip-rule="evenodd" stroke-linejoin="round" stroke-miterlimit="1.414"><path d="M3.876 30.17l3.044-8.92h10.982l3.044 8.923h3.36l-10.29-28.64H10.95L.665 30.17h3.212zm8.588-24.774l4.556 13.27H7.824l4.556-13.27h.084zm39.83 2.792h-3.107l-4.284 17.826h-.146l-5.29-17.826h-2.92l-5.144 17.826h-.147l-4.2-17.826H23.55l6.215 21.983h3.045l5.186-17.46h.084l5.29 17.47h3.003L52.293 8.2zm11.003 22.34c5.585 0 7.83-3.464 8.314-6.194h-3.25c-.4 1.638-1.76 3.444-5.08 3.444-4.24 0-6.04-3.423-6.04-7.223v-.61h14.69v-1.74c0-6.11-2.92-10.373-8.903-10.373-5.984 0-8.902 4.41-8.902 10.414v2.1c0 5.92 2.98 10.182 9.175 10.182zM57.23 17.28v-.063c0-3.884 2.183-6.677 5.794-6.677 3.632 0 5.795 2.772 5.795 6.677v.063H57.23zm18.203-2.94c0 4.263 3.318 5.165 7.454 6.047 3.15.63 5.648 1.155 5.648 3.78 0 2.162-1.68 3.78-5.333 3.78-3.254 0-4.87-1.597-5.165-3.613h-3.023c0 3.78 3.233 6.194 8.062 6.194 4.976 0 8.524-2.372 8.524-6.718 0-4.305-3.548-5.354-7.663-6.11-2.667-.525-5.46-.966-5.46-3.675 0-2.35 2.038-3.653 4.767-3.653 3.674 0 4.787 2.226 4.892 3.947h2.92c0-3.45-2.48-6.49-7.665-6.49-4.17 0-7.95 2.01-7.95 6.51zm28.87-6.508c-6.3 0-9.3 4.41-9.3 10.35v1.974c0 6.194 3.023 10.372 9.3 10.372 6.28 0 9.28-4.22 9.28-10.372v-1.973c0-6.13-3-10.35-9.28-10.35zm0 2.708c4.557 0 6.174 3.632 6.174 8v1.28c0 4.472-1.617 7.958-6.173 7.958-4.577 0-6.236-3.507-6.236-7.958v-1.28c0-4.39 1.68-8 6.236-8zm13.985 19.63h3.087V16.126c0-3.422 2.183-5.46 5.102-5.46 3.17 0 5.04 1.954 5.04 5.46V30.17h3.085V16.126c0-3.107 1.806-5.46 5.144-5.46 3.276 0 4.997 2.164 4.997 5.124v14.38h3.066V15.223c0-4.577-2.8-7.39-7.4-7.39-3.654 0-5.94 1.742-6.74 3.632h-.148c-.84-2.184-2.897-3.632-6.38-3.632-2.984 0-4.916 1.595-5.608 3.107h-.17V8.187h-3.086V30.17zm43.316.358c5.585 0 7.832-3.464 8.314-6.194h-3.254c-.4 1.638-1.764 3.444-5.08 3.444-4.242 0-6.048-3.423-6.048-7.223v-.61h14.697v-1.74c0-6.11-2.918-10.373-8.902-10.373-5.98 0-8.9 4.41-8.9 10.414v2.1c0 5.92 2.98 10.182 9.18 10.182zm-6.068-13.248v-.063c0-3.884 2.184-6.677 5.795-6.677 3.64 0 5.8 2.772 5.8 6.677v.063h-11.59zm27.066 12.89h3.086V16.126c0-3.422 2.184-5.46 5.102-5.46 3.17 0 5.04 1.954 5.04 5.46V30.17h3.086V16.126c0-3.107 1.805-5.46 5.144-5.46 3.275 0 4.997 2.164 4.997 5.124v14.38h3.065V15.223c0-4.577-2.792-7.39-7.39-7.39-3.654 0-5.942 1.742-6.74 3.632h-.147c-.84-2.184-2.898-3.632-6.383-3.632-2.98 0-4.913 1.595-5.606 3.107h-.168V8.187h-3.086V30.17zm47.62-3.043h.084v3.044h3.002V14.78c0-4.85-3.044-6.948-7.852-6.948-5.27 0-7.853 2.624-8.063 6.424h3.003c.273-2.162 1.658-3.653 4.892-3.653 3.107 0 4.892 1.24 4.892 4.22v2.73h-5.984c-5.018 0-7.664 2.54-7.664 6.34 0 4.032 2.92 6.635 7.18 6.635 3.36 0 5.46-1.637 6.51-3.4zm-5.774.714c-2.478 0-4.724-1.28-4.724-4.01 0-2.14 1.364-3.69 4.577-3.69h5.88v2.52c0 2.96-2.45 5.19-5.73 5.19zm13.46-7.34c0 5.837 3.13 10.036 8.964 10.036 5.333 0 8.23-3.296 8.4-6.236h-3.088c-.44 1.763-2.036 3.34-5.25 3.34-3.778 0-5.96-3.047-5.96-7.12v-2.56c0-4.138 1.888-7.413 5.94-7.413 3.192 0 4.872 2.186 5.124 3.886h3.086c-.063-3.21-2.94-6.59-8.252-6.59-5.752 0-8.965 4.22-8.965 9.972V20.5zm23.894-6.74c0-6.55 3.485-9.994 8.146-9.994 4.682 0 8.19 3.444 8.19 9.994v4.45c0 6.55-3.487 9.72-8.19 9.72-4.66 0-8.146-3.17-8.146-9.72v-4.45zm-3.108 4.43c0 8.04 4.367 12.598 11.233 12.598 6.845 0 11.338-4.555 11.338-12.596v-4.41c0-8.062-4.41-12.87-11.275-12.87-6.824 0-11.296 4.808-11.296 12.87v4.41zm25.51 4.388c.127 3.613 2.71 8.21 10.14 8.21 5.818 0 10.5-2.875 10.5-8.42 0-4.512-2.96-6.507-7.453-7.725l-4.85-1.322c-2.89-.755-4.26-2.31-4.26-4.556 0-3.233 2.71-5.06 6.47-5.06 4.24 0 6.387 2.31 6.64 5.123h3.13c-.107-5.44-4.894-7.98-9.7-7.98-5.04 0-9.7 2.878-9.7 8.127 0 4.365 3.19 6.51 6.59 7.41l4.956 1.32c3.38.884 4.977 2.29 4.977 4.87 0 3.3-2.73 5.357-6.887 5.357-4.704 0-7.097-2.52-7.37-5.354h-3.17z" fill-rule="nonzero"/></svg>