<svg viewBox="0 0 306 30" xmlns="http://www.w3.org/2000/svg" fill-rule="evenodd" clip-rule="evenodd" stroke-linejoin="round" stroke-miterlimit="1.414"><path d="M20.672 29.414h3.69L13.972 1.23h-3.475L.107 29.414h3.69l2.832-8.066h11.21l2.83 8.066zM12.176 5.508h.117l4.512 12.85h-9.14l4.51-12.85zM52.43 8.36h-3.36l-4.277 17.206h-.078L39.89 8.36h-3.28l-4.825 17.206h-.078L27.43 8.36h-3.36l5.9 21.054h3.436l4.805-16.367h.08l4.81 16.367h3.44l5.9-21.055zm11.29 2.792c3.32 0 5.585 2.383 5.663 5.957H57.8c.235-3.56 2.618-5.96 5.92-5.96zm5.585 12.246c-.606 1.973-2.657 3.223-5.293 3.223-3.75 0-6.21-2.59-6.21-6.6v-.19h15.116V18.5c0-6.368-3.516-10.333-9.14-10.333-5.743 0-9.493 4.277-9.493 10.8 0 6.524 3.73 10.645 9.65 10.645 4.49 0 8.143-2.597 8.73-6.21h-3.36zm6.835-9.16c0 2.813 1.797 4.668 5.49 5.625l3.69.957c2.403.625 3.282 1.407 3.282 2.89 0 1.895-1.797 3.087-4.668 3.087-2.872 0-4.61-1.152-4.96-3.3h-3.42c.333 3.65 3.614 6.112 8.145 6.112 4.86 0 8.32-2.54 8.32-6.14 0-3.07-1.53-4.55-5.79-5.627l-3.204-.8c-2.42-.607-3.555-1.564-3.555-2.99 0-1.835 1.74-3.066 4.336-3.066 2.58 0 4.3 1.23 4.514 3.203h3.263c-.138-3.457-3.38-6.015-7.657-6.015-4.57 0-7.796 2.5-7.796 6.054zm28.243 15.372c5.918 0 9.707-4.2 9.707-10.723 0-6.543-3.79-10.723-9.707-10.723-5.918 0-9.707 4.18-9.707 10.723 0 6.523 3.79 10.722 9.707 10.722zm0-3.028c-3.906 0-6.25-2.87-6.25-7.695s2.324-7.696 6.25-7.696 6.25 2.86 6.25 7.7c0 4.83-2.324 7.7-6.25 7.7zm13.28 2.832h3.4V16.348c0-2.95 2.07-5.157 4.882-5.157 2.637 0 4.375 1.68 4.375 4.22v14.01h3.4V16.176c0-2.89 2.01-4.98 4.823-4.98 2.812 0 4.434 1.718 4.434 4.628v13.595h3.398V15.04c0-4.18-2.695-6.876-6.855-6.876-2.95 0-5.43 1.484-6.622 3.984h-.078c-.918-2.54-3.047-3.984-5.898-3.984-2.735 0-4.98 1.367-5.977 3.613h-.078V8.36h-3.203v21.054zm41.622-18.262c3.32 0 5.586 2.383 5.664 5.957h-11.59c.232-3.56 2.614-5.96 5.915-5.96zm5.586 12.246c-.6 1.973-2.65 3.223-5.29 3.223-3.75 0-6.21-2.59-6.21-6.6v-.19h15.12V18.5c0-6.368-3.512-10.333-9.14-10.333-5.74 0-9.49 4.277-9.49 10.8 0 6.524 3.73 10.645 9.65 10.645 4.492 0 8.145-2.597 8.73-6.21h-3.36zm16.76 6.016h3.4V16.348c0-2.95 2.07-5.157 4.888-5.157 2.638 0 4.376 1.68 4.376 4.22v14.01h3.4V16.176c0-2.89 2.01-4.98 4.823-4.98 2.81 0 4.433 1.718 4.433 4.628v13.595h3.4V15.04c0-4.18-2.695-6.876-6.856-6.876-2.95 0-5.43 1.484-6.62 3.984h-.08c-.916-2.54-3.045-3.984-5.896-3.984-2.734 0-4.98 1.367-5.976 3.613h-.076V8.36h-3.202v21.054zm40.1-2.754c-2.652 0-4.35-1.27-4.35-3.223 0-2.03 1.642-3.183 4.806-3.378l5.508-.36v1.7c0 3.025-2.52 5.25-5.956 5.25zm-.72 2.95c2.95 0 5.588-1.505 6.78-3.848h.08v3.652h3.222V14.96c0-4.14-3.203-6.796-8.184-6.796-4.414 0-7.87 2.715-7.97 6.27h3.26c.414-1.993 2.23-3.243 4.67-3.243 3.107 0 4.826 1.45 4.826 4.07v1.76l-5.9.35c-5.115.315-7.89 2.444-7.89 6.057 0 3.73 2.834 6.19 7.11 6.19zM253 15.215c-.43-3.692-3.614-7.05-8.83-7.05-5.762 0-9.61 4.257-9.61 10.722 0 6.62 3.868 10.722 9.65 10.722 4.804 0 8.26-2.84 8.827-6.94h-3.34c-.586 2.54-2.54 3.903-5.468 3.903-3.678 0-6.21-2.91-6.21-7.695 0-4.65 2.5-7.696 6.17-7.696 3.16 0 5.04 1.78 5.47 4.024H253zM268.62.762c-7.987 0-12.987 5.625-12.987 14.57s5 14.55 12.988 14.55c7.99 0 12.99-5.605 12.99-14.55s-5-14.57-12.99-14.57zm0 3.242c5.763 0 9.376 4.375 9.376 11.328 0 6.934-3.613 11.31-9.375 11.31-5.76 0-9.37-4.376-9.37-11.31 0-6.953 3.618-11.328 9.38-11.328zm16.017 17.656c.332 4.98 4.472 8.223 10.45 8.223 6.483 0 10.546-3.223 10.546-8.38 0-4.042-2.363-6.288-8.203-7.753l-2.95-.78c-3.828-.997-5.39-2.267-5.39-4.396 0-2.754 2.54-4.648 6.19-4.648 3.673 0 6.115 1.855 6.427 4.883h3.516c-.157-4.73-4.22-8.05-9.825-8.05-5.86 0-9.96 3.28-9.96 7.97 0 3.83 2.304 6.11 7.5 7.44l3.613.93c3.79.976 5.45 2.44 5.45 4.824 0 2.773-2.77 4.785-6.58 4.785-4.02 0-6.91-2.013-7.24-5.06h-3.534z" fill-rule="nonzero"/></svg>