<?xml version="1.0" encoding="UTF-8" standalone="no"?>
<svg width="345px" height="30px" viewBox="0 0 345 30" version="1.1" xmlns="http://www.w3.org/2000/svg" xmlns:xlink="http://www.w3.org/1999/xlink">
    <defs></defs>
    <g id="Page-1" stroke="none" stroke-width="1" fill="none" fill-rule="evenodd">
        <path d="M21.4860884,29 L24.314239,29 L13.7283142,0.659574468 L11.0572831,0.659574468 L0.451718494,29 L3.299509,29 L6.44189853,20.3191489 L18.3436989,20.3191489 L21.4860884,29 Z M12.3338789,3.9787234 L12.4517185,3.9787234 L17.5384615,18.0016367 L7.24713584,18.0016367 L12.3338789,3.9787234 Z M52.0654664,7.84779051 L49.4533552,7.84779051 L44.6612111,26.0540098 L44.6022913,26.0540098 L39.2798691,7.84779051 L36.6481178,7.84779051 L31.3453355,26.0540098 L31.2864157,26.0540098 L26.4942717,7.84779051 L23.8821604,7.84779051 L29.9116203,29 L32.6415712,29 L37.9443535,11.3829787 L38.0032733,11.3829787 L43.3060556,29 L46.0360065,29 L52.0654664,7.84779051 Z M63.1423895,9.90998363 C66.9721768,9.90998363 69.5646481,12.7381342 69.603928,16.9410802 L56.4451718,16.9410802 C56.6808511,12.7381342 59.3518822,9.90998363 63.1423895,9.90998363 L63.1423895,9.90998363 Z M69.4664484,23.00982 C68.8379705,25.3273322 66.5793781,26.9378069 63.3977087,26.9378069 C59.1947627,26.9378069 56.4451718,23.9918167 56.4451718,19.1996727 L56.4451718,19.0621931 L72.314239,19.0621931 L72.314239,17.9230769 C72.314239,11.6382979 68.7397709,7.61211129 63.1816694,7.61211129 C57.4860884,7.61211129 53.7545008,11.913257 53.7545008,18.4729951 C53.7545008,25.1309329 57.4860884,29.2356792 63.3387889,29.2356792 C67.9345336,29.2356792 71.410802,26.6235679 72.0392799,23.00982 L69.4664484,23.00982 Z M75.4959083,13.5433715 C75.4959083,16.3322422 77.3027823,18.0605565 80.9558101,18.9836334 L84.5302782,19.8870704 C87.3977087,20.594108 88.4779051,21.5761047 88.4779051,23.3633388 C88.4779051,25.6022913 86.2782324,27.0556465 83.1162029,27.0556465 C79.9148936,27.0556465 77.8134206,25.4648118 77.4991817,23.0490998 L74.8674304,23.0490998 C75.1620295,26.6432079 78.4222586,29.2356792 82.9590835,29.2356792 C87.7119476,29.2356792 91.1096563,26.7610475 91.1096563,23.1865794 C91.1096563,20.1816694 89.4991817,18.6497545 85.2569558,17.589198 L82.0163666,16.8036007 C79.3256956,16.1358429 78.0687398,15.1342062 78.0687398,13.405892 C78.0687398,11.2651391 80.1898527,9.81178396 83.0180033,9.81178396 C86.0032733,9.81178396 87.9476268,11.4026187 88.202946,13.7986907 L90.6972177,13.7986907 C90.4811784,10.1653028 87.3780687,7.61211129 83.096563,7.61211129 C78.7364975,7.61211129 75.4959083,10.0474632 75.4959083,13.5433715 L75.4959083,13.5433715 Z M103.286416,29.2356792 C109.099836,29.2356792 112.909984,25.0130933 112.909984,18.4140753 C112.909984,11.8150573 109.099836,7.61211129 103.286416,7.61211129 C97.4729951,7.61211129 93.6824877,11.8150573 93.6824877,18.4140753 C93.6824877,25.0130933 97.4729951,29.2356792 103.286416,29.2356792 L103.286416,29.2356792 Z M103.286416,26.898527 C99.00491,26.898527 96.3338789,23.6972177 96.3338789,18.4140753 C96.3338789,13.1505728 99.00491,9.92962357 103.286416,9.92962357 C107.587561,9.92962357 110.258592,13.1309329 110.258592,18.4140753 C110.258592,23.6972177 107.587561,26.898527 103.286416,26.898527 L103.286416,26.898527 Z M116.523732,29 L119.116203,29 L119.116203,16.096563 C119.116203,12.4631751 121.374795,9.92962357 124.517185,9.92962357 C127.423895,9.92962357 129.407529,11.9525368 129.407529,14.9770867 L129.407529,29 L132,29 L132,15.7823241 C132,12.3649755 134.199673,9.92962357 137.361702,9.92962357 C140.464812,9.92962357 142.291326,11.9328969 142.291326,15.2324059 L142.291326,29 L144.903437,29 L144.903437,14.6432079 C144.903437,10.3617021 142.193126,7.61211129 138.06874,7.61211129 C134.88707,7.61211129 132.373159,9.4386252 131.371522,12.0507365 L131.312602,12.0507365 C130.507365,9.3797054 128.268412,7.61211129 125.204583,7.61211129 C122.199673,7.61211129 119.94108,9.30114566 119.037643,11.7954173 L118.959083,11.7954173 L118.959083,7.84779051 L116.523732,7.84779051 L116.523732,29 Z M157.787234,9.90998363 C161.617021,9.90998363 164.209493,12.7381342 164.248773,16.9410802 L151.090016,16.9410802 C151.325696,12.7381342 153.996727,9.90998363 157.787234,9.90998363 L157.787234,9.90998363 Z M164.111293,23.00982 C163.482815,25.3273322 161.224223,26.9378069 158.042553,26.9378069 C153.839607,26.9378069 151.090016,23.9918167 151.090016,19.1996727 L151.090016,19.0621931 L166.959083,19.0621931 L166.959083,17.9230769 C166.959083,11.6382979 163.384615,7.61211129 157.826514,7.61211129 C152.130933,7.61211129 148.399345,11.913257 148.399345,18.4729951 C148.399345,25.1309329 152.130933,29.2356792 157.983633,29.2356792 C162.579378,29.2356792 166.055646,26.6235679 166.684124,23.00982 L164.111293,23.00982 Z M207.10311,0.659574468 L204,0.659574468 L193.512275,25.4648118 L193.394435,25.4648118 L182.88707,0.659574468 L179.803601,0.659574468 L179.803601,29 L182.317512,29 L182.317512,5.74631751 L182.435352,5.74631751 L192.274959,28.8625205 L194.612111,28.8625205 L204.471358,5.74631751 L204.589198,5.74631751 L204.589198,29 L207.10311,29 L207.10311,0.659574468 Z M218.847791,26.9574468 C215.9018,26.9574468 213.898527,25.405892 213.898527,23.1276596 C213.898527,20.7512275 215.783961,19.3764321 219.338789,19.1407529 L225.525368,18.7086743 L225.525368,21.0458265 C225.525368,24.3846154 222.638298,26.9574468 218.847791,26.9574468 L218.847791,26.9574468 Z M218.337152,29.2356792 C221.577741,29.2356792 224.445172,27.5270049 225.584288,24.9541735 L225.643208,24.9541735 L225.643208,29 L228.11784,29 L228.11784,14.5842881 C228.11784,10.3224223 225.03437,7.61211129 220.183306,7.61211129 C215.744681,7.61211129 212.405892,10.2438625 212.189853,13.9558101 L214.684124,13.9558101 C215.155483,11.4418985 217.217676,9.92962357 220.163666,9.92962357 C223.581015,9.92962357 225.525368,11.7168576 225.525368,14.8003273 L225.525368,16.6072013 L219.02455,17.0392799 C213.957447,17.3927987 211.247136,19.4942717 211.247136,23.1080196 C211.247136,26.7610475 214.114566,29.2356792 218.337152,29.2356792 L218.337152,29.2356792 Z M249.819967,14.5057283 C249.309329,10.7741408 246.06874,7.61211129 241.119476,7.61211129 C235.384615,7.61211129 231.613748,11.8739771 231.613748,18.4140753 C231.613748,25.091653 235.404255,29.2356792 241.158756,29.2356792 C245.833061,29.2356792 249.230769,26.4664484 249.839607,22.4795417 L247.266776,22.4795417 C246.657938,25.2487725 244.399345,26.898527 241.158756,26.898527 C237.01473,26.898527 234.265139,23.6579378 234.265139,18.4140753 C234.265139,13.2684124 236.99509,9.92962357 241.139116,9.92962357 C244.517185,9.92962357 246.736498,11.913257 247.247136,14.5057283 L249.819967,14.5057283 Z M274.173486,0.207855974 C266.278232,0.207855974 261.309329,5.86415712 261.309329,14.8396072 C261.309329,23.8150573 266.278232,29.4517185 274.173486,29.4517185 C282.08838,29.4517185 287.057283,23.8150573 287.057283,14.8396072 C287.057283,5.86415712 282.06874,0.207855974 274.173486,0.207855974 L274.173486,0.207855974 Z M274.173486,2.70212766 C280.379705,2.70212766 284.307692,7.39607201 284.307692,14.8396072 C284.307692,22.2635025 280.379705,26.9574468 274.173486,26.9574468 C267.967267,26.9574468 264.05892,22.2635025 264.05892,14.8396072 C264.05892,7.39607201 267.967267,2.70212766 274.173486,2.70212766 L274.173486,2.70212766 Z M289.846154,21.3011457 C290.140753,26.1718494 294.304419,29.4517185 300.235679,29.4517185 C306.500818,29.4517185 310.507365,26.1914894 310.507365,21.2225859 C310.507365,17.2749591 308.111293,15.0949264 302.415712,13.6612111 L299.351882,12.8756137 C295.188216,11.8150573 293.420622,10.3813421 293.420622,7.94599018 C293.420622,4.82324059 296.327332,2.64320786 300.255319,2.64320786 C304.281506,2.64320786 307.109656,4.76432079 307.364975,7.96563011 L310.055646,7.96563011 C309.898527,3.46808511 305.8527,0.207855974 300.333879,0.207855974 C294.756137,0.207855974 290.631751,3.46808511 290.631751,8.04418985 C290.631751,11.7757774 292.968903,13.99509 298.212766,15.3306056 L301.728314,16.2340426 C305.93126,17.294599 307.757774,18.8657938 307.757774,21.5171849 C307.757774,24.6988543 304.713584,27.0163666 300.471358,27.0163666 C296.032733,27.0163666 292.831424,24.6988543 292.536825,21.3011457 L289.846154,21.3011457 Z M321.564648,29 L324.608838,29 L332.95581,17.0196399 L333.05401,17.0196399 L341.283142,29 L344.504092,29 L334.703764,14.9181669 L334.703764,14.8396072 L344.661211,0.659574468 L341.577741,0.659574468 L333.250409,12.6988543 L333.152209,12.6988543 L324.883797,0.659574468 L321.643208,0.659574468 L331.423895,14.7217676 L331.423895,14.8199673 L321.564648,29 Z" id="awesome_2" fill="#000000"></path>
    </g>
</svg>