<?xml version="1.0" encoding="UTF-8" standalone="no"?>
<svg width="262px" height="30px" viewBox="0 0 262 30" version="1.1" xmlns="http://www.w3.org/2000/svg" xmlns:xlink="http://www.w3.org/1999/xlink">
    <defs></defs>
    <g id="Page-1" stroke="none" stroke-width="1" fill="none" fill-rule="evenodd">
        <path d="M21.4860884,29 L24.314239,29 L13.7283142,0.659574468 L11.0572831,0.659574468 L0.451718494,29 L3.299509,29 L6.44189853,20.3191489 L18.3436989,20.3191489 L21.4860884,29 Z M12.3338789,3.9787234 L12.4517185,3.9787234 L17.5384615,18.0016367 L7.24713584,18.0016367 L12.3338789,3.9787234 Z M52.0654664,7.84779051 L49.4533552,7.84779051 L44.6612111,26.0540098 L44.6022913,26.0540098 L39.2798691,7.84779051 L36.6481178,7.84779051 L31.3453355,26.0540098 L31.2864157,26.0540098 L26.4942717,7.84779051 L23.8821604,7.84779051 L29.9116203,29 L32.6415712,29 L37.9443535,11.3829787 L38.0032733,11.3829787 L43.3060556,29 L46.0360065,29 L52.0654664,7.84779051 Z M63.1423895,9.90998363 C66.9721768,9.90998363 69.5646481,12.7381342 69.603928,16.9410802 L56.4451718,16.9410802 C56.6808511,12.7381342 59.3518822,9.90998363 63.1423895,9.90998363 L63.1423895,9.90998363 Z M69.4664484,23.00982 C68.8379705,25.3273322 66.5793781,26.9378069 63.3977087,26.9378069 C59.1947627,26.9378069 56.4451718,23.9918167 56.4451718,19.1996727 L56.4451718,19.0621931 L72.314239,19.0621931 L72.314239,17.9230769 C72.314239,11.6382979 68.7397709,7.61211129 63.1816694,7.61211129 C57.4860884,7.61211129 53.7545008,11.913257 53.7545008,18.4729951 C53.7545008,25.1309329 57.4860884,29.2356792 63.3387889,29.2356792 C67.9345336,29.2356792 71.410802,26.6235679 72.0392799,23.00982 L69.4664484,23.00982 Z M75.4959083,13.5433715 C75.4959083,16.3322422 77.3027823,18.0605565 80.9558101,18.9836334 L84.5302782,19.8870704 C87.3977087,20.594108 88.4779051,21.5761047 88.4779051,23.3633388 C88.4779051,25.6022913 86.2782324,27.0556465 83.1162029,27.0556465 C79.9148936,27.0556465 77.8134206,25.4648118 77.4991817,23.0490998 L74.8674304,23.0490998 C75.1620295,26.6432079 78.4222586,29.2356792 82.9590835,29.2356792 C87.7119476,29.2356792 91.1096563,26.7610475 91.1096563,23.1865794 C91.1096563,20.1816694 89.4991817,18.6497545 85.2569558,17.589198 L82.0163666,16.8036007 C79.3256956,16.1358429 78.0687398,15.1342062 78.0687398,13.405892 C78.0687398,11.2651391 80.1898527,9.81178396 83.0180033,9.81178396 C86.0032733,9.81178396 87.9476268,11.4026187 88.202946,13.7986907 L90.6972177,13.7986907 C90.4811784,10.1653028 87.3780687,7.61211129 83.096563,7.61211129 C78.7364975,7.61211129 75.4959083,10.0474632 75.4959083,13.5433715 L75.4959083,13.5433715 Z M103.286416,29.2356792 C109.099836,29.2356792 112.909984,25.0130933 112.909984,18.4140753 C112.909984,11.8150573 109.099836,7.61211129 103.286416,7.61211129 C97.4729951,7.61211129 93.6824877,11.8150573 93.6824877,18.4140753 C93.6824877,25.0130933 97.4729951,29.2356792 103.286416,29.2356792 L103.286416,29.2356792 Z M103.286416,26.898527 C99.00491,26.898527 96.3338789,23.6972177 96.3338789,18.4140753 C96.3338789,13.1505728 99.00491,9.92962357 103.286416,9.92962357 C107.587561,9.92962357 110.258592,13.1309329 110.258592,18.4140753 C110.258592,23.6972177 107.587561,26.898527 103.286416,26.898527 L103.286416,26.898527 Z M116.523732,29 L119.116203,29 L119.116203,16.096563 C119.116203,12.4631751 121.374795,9.92962357 124.517185,9.92962357 C127.423895,9.92962357 129.407529,11.9525368 129.407529,14.9770867 L129.407529,29 L132,29 L132,15.7823241 C132,12.3649755 134.199673,9.92962357 137.361702,9.92962357 C140.464812,9.92962357 142.291326,11.9328969 142.291326,15.2324059 L142.291326,29 L144.903437,29 L144.903437,14.6432079 C144.903437,10.3617021 142.193126,7.61211129 138.06874,7.61211129 C134.88707,7.61211129 132.373159,9.4386252 131.371522,12.0507365 L131.312602,12.0507365 C130.507365,9.3797054 128.268412,7.61211129 125.204583,7.61211129 C122.199673,7.61211129 119.94108,9.30114566 119.037643,11.7954173 L118.959083,11.7954173 L118.959083,7.84779051 L116.523732,7.84779051 L116.523732,29 Z M157.787234,9.90998363 C161.617021,9.90998363 164.209493,12.7381342 164.248773,16.9410802 L151.090016,16.9410802 C151.325696,12.7381342 153.996727,9.90998363 157.787234,9.90998363 L157.787234,9.90998363 Z M164.111293,23.00982 C163.482815,25.3273322 161.224223,26.9378069 158.042553,26.9378069 C153.839607,26.9378069 151.090016,23.9918167 151.090016,19.1996727 L151.090016,19.0621931 L166.959083,19.0621931 L166.959083,17.9230769 C166.959083,11.6382979 163.384615,7.61211129 157.826514,7.61211129 C152.130933,7.61211129 148.399345,11.913257 148.399345,18.4729951 C148.399345,25.1309329 152.130933,29.2356792 157.983633,29.2356792 C162.579378,29.2356792 166.055646,26.6235679 166.684124,23.00982 L164.111293,23.00982 Z M191.528642,0.207855974 C183.633388,0.207855974 178.664484,5.86415712 178.664484,14.8396072 C178.664484,23.8150573 183.633388,29.4517185 191.528642,29.4517185 C199.443535,29.4517185 204.412439,23.8150573 204.412439,14.8396072 C204.412439,5.86415712 199.423895,0.207855974 191.528642,0.207855974 L191.528642,0.207855974 Z M191.528642,2.70212766 C197.734861,2.70212766 201.662848,7.39607201 201.662848,14.8396072 C201.662848,22.2635025 197.734861,26.9574468 191.528642,26.9574468 C185.322422,26.9574468 181.414075,22.2635025 181.414075,14.8396072 C181.414075,7.39607201 185.322422,2.70212766 191.528642,2.70212766 L191.528642,2.70212766 Z M207.201309,21.3011457 C207.495908,26.1718494 211.659574,29.4517185 217.590835,29.4517185 C223.855974,29.4517185 227.86252,26.1914894 227.86252,21.2225859 C227.86252,17.2749591 225.466448,15.0949264 219.770867,13.6612111 L216.707038,12.8756137 C212.543372,11.8150573 210.775777,10.3813421 210.775777,7.94599018 C210.775777,4.82324059 213.682488,2.64320786 217.610475,2.64320786 C221.636661,2.64320786 224.464812,4.76432079 224.720131,7.96563011 L227.410802,7.96563011 C227.253682,3.46808511 223.207856,0.207855974 217.689034,0.207855974 C212.111293,0.207855974 207.986907,3.46808511 207.986907,8.04418985 C207.986907,11.7757774 210.324059,13.99509 215.567921,15.3306056 L219.08347,16.2340426 C223.286416,17.294599 225.11293,18.8657938 225.11293,21.5171849 C225.11293,24.6988543 222.06874,27.0163666 217.826514,27.0163666 C213.387889,27.0163666 210.186579,24.6988543 209.89198,21.3011457 L207.201309,21.3011457 Z M238.919804,29 L241.963993,29 L250.310966,17.0196399 L250.409165,17.0196399 L258.638298,29 L261.859247,29 L252.05892,14.9181669 L252.05892,14.8396072 L262.016367,0.659574468 L258.932897,0.659574468 L250.605565,12.6988543 L250.507365,12.6988543 L242.238953,0.659574468 L238.998363,0.659574468 L248.779051,14.7217676 L248.779051,14.8199673 L238.919804,29 Z" id="Awesome-OS-X" fill="#000000"></path>
    </g>
</svg>