<?xml version="1.0" encoding="UTF-8" standalone="no"?>
<svg width="12px" height="12px" viewBox="0 0 64 64" version="1.1" xmlns="http://www.w3.org/2000/svg" xmlns:svg="http://www.w3.org/2000/svg">
  <defs></defs>
  <g id="Logo">
    <path d="M 31.1875 0 C 13.90625 0.4375 0 14.613281 0 32 C 0 49.664063 14.335938 64 32 64 C 49.664063 64 64 49.664063 64 32 C 64 14.335938 49.664063 0 32 0 C 31.722656 0 31.460938 -0.0078125 31.1875 0 Z M 31.15625 5.5 C 31.441406 5.492188 31.714844 5.5 32 5.5 C 46.628906 5.5 58.5 17.371094 58.5 32 C 58.5 46.628906 46.628906 58.5 32 58.5 C 17.371094 58.5 5.5 46.628906 5.5 32 C 5.5 17.65625 16.921875 5.953125 31.15625 5.5 Z" id="circle" />
    <path d="M 25.644531 38.742188 C 27.707031 41.625 33.996094 41.832031 36.15625 40.613281 C 36.949219 40.164063 37.144531 38.863281 37.144531 37.984375 C 37.144531 37.378906 36.988281 36.90625 36.667969 36.558594 C 36.332031 36.214844 35.480469 35.339844 34.492188 35.082031 C 29.472656 33.785156 26 32.167969 24.636719 30.996094 C 22.941406 29.527344 22.667969 28.570313 22.667969 26.015625 C 22.667969 23.460938 23.402344 21.320313 25.0625 19.785156 C 26.722656 18.25 29.136719 17.480469 32.296875 17.480469 C 35.316406 17.480469 39.566406 18.277344 41.636719 20.738281 L 38.183594 24.492188 C 36.234375 22.859375 34.789063 22.710938 32.402344 22.710938 C 30.902344 22.710938 30.121094 22.925781 29.484375 23.359375 C 28.847656 23.773438 28.53125 24.316406 28.53125 24.988281 C 28.53125 25.59375 28.820313 26.09375 29.40625 26.488281 C 29.988281 26.90625 31.511719 27.527344 34.550781 28.355469 C 37.957031 29.285156 40.273438 30.417969 41.492188 31.746094 C 42.691406 33.074219 43.292969 34.84375 43.292969 37.050781 C 43.292969 39.710938 42.355469 41.902344 40.484375 43.628906 C 38.628906 45.355469 36.347656 46.695313 33.0625 46.695313 C 28.832031 46.695313 23.1875 45.199219 21.628906 42.441406" id="dollar-s" />
    <path d="M 6.2078433,40.4239 8.6580846,45.778157 60.713781,22.42457 58.263539,17.070313 Z" id="diagonal" />
    <path d="M 30.375 12.875 L 30.375 19.71875 L 33.625 19.71875 L 33.625 12.875 Z M 30.375 44.96875 L 30.375 51.125 L 33.625 51.125 L 33.625 44.96875 Z" id="dollar-ticks" />
  </g>
</svg>
